<?xml version="1.0" encoding="UTF-8"?><!DOCTYPE svg PUBLIC "-//W3C//DTD SVG 1.1//EN" "http://www.w3.org/Graphics/SVG/1.1/DTD/svg11.dtd"><!--Creator: CorelDRAW 2020 (64-Bit)--><svg xmlns="http://www.w3.org/2000/svg" width="49" height="49" shape-rendering="geometricPrecision" text-rendering="geometricPrecision" image-rendering="optimizeQuality" fill-rule="evenodd" clip-rule="evenodd" viewBox="0 0 6.72 6.72"><metadata/><rect fill="#008AAD" width="6.72" height="6.72" rx=".347" ry=".347"/><path fill="#006C87" d="M2.241 4.656l2.062 2.048c.69-.003 1.385.003 2.075 0 .15.005.321-.138.327-.341l.015-2.572-2.015-1.68-2.464 2.545z"/><path fill="#FEFEFE" d="M2.464 2.141l.991.991.99-.991a.21.21 0 01.297.297l-.99.991.99.99a.21.21 0 01-.297.297l-.99-.99-.991.99a.21.21 0 01-.297-.297l.991-.99-.991-.991a.21.21 0 01.297-.297z"/></svg>