<?xml version="1.0" encoding="UTF-8"?><!DOCTYPE svg PUBLIC "-//W3C//DTD SVG 1.1//EN" "http://www.w3.org/Graphics/SVG/1.1/DTD/svg11.dtd"><!--Creator: CorelDRAW 2020 (64-Bit)--><svg xmlns="http://www.w3.org/2000/svg" width="49" height="49" shape-rendering="geometricPrecision" text-rendering="geometricPrecision" image-rendering="optimizeQuality" fill-rule="evenodd" clip-rule="evenodd" viewBox="0 0 4.159 4.159"><metadata/><rect fill="#E6E7E8" width="4.159" height="4.159" rx=".215" ry=".215"/><path fill="#D2D3D5" d="M1.104 3.308l.624.851 2.219-.01c.093.003.199-.085.202-.211l.009-1.525L3.191.962l-.336.155v2.204l-1.751-.013z"/><g fill="#008AAD"><path d="M1.276 1.291h1.662c.157 0 .284.128.284.284v1.516a.285.285 0 01-.284.285H1.276a.285.285 0 01-.284-.285V1.575c0-.156.128-.284.284-.284zm1.15.334h.16c.059 0 .107.048.107.106v1.105a.107.107 0 01-.107.106h-.16a.107.107 0 01-.107-.106V1.731c0-.058.048-.106.107-.106zm-.847.003h.172c.055 0 .1.046.1.101v1.114a.1.1 0 01-.1.1h-.172a.1.1 0 01-.1-.1V1.729c0-.055.045-.101.1-.101zM1.123.911h.702a.103.103 0 01-.05-.089V.756c0-.058.047-.105.104-.105h.474c.058 0 .105.047.105.105v.066c0 .038-.02.071-.05.089h.675c.078 0 .141.064.141.141v.09a.14.14 0 01-.141.14h-1.96a.14.14 0 01-.141-.14v-.09c0-.077.063-.141.141-.141z"/></g></svg>