<?xml version="1.0" encoding="UTF-8"?><!DOCTYPE svg PUBLIC "-//W3C//DTD SVG 1.1//EN" "http://www.w3.org/Graphics/SVG/1.1/DTD/svg11.dtd"><!--Creator: CorelDRAW 2020 (64-Bit)--><svg xmlns="http://www.w3.org/2000/svg" width="28" height="18" shape-rendering="geometricPrecision" text-rendering="geometricPrecision" image-rendering="optimizeQuality" fill-rule="evenodd" clip-rule="evenodd" viewBox="0 0 0.433 0.287"><metadata/><path fill="#F2F5F9" stroke="#008AAD" stroke-width=".021" stroke-miterlimit="2.613" d="M.284.175h.102c.005 0 .009.004.009.009l.001.083c0 .005-.005.009-.01.009H.284A.009.009 0 01.275.267V.184c0-.005.004-.009.009-.009z"/><path fill="#F2F5F9" d="M.236.144l.197.001L.236.144zM.01.217V.079C.01.065.022.054.036.054H.21c.014 0 .026.011.026.025v.138A.026.026 0 01.21.242H.036A.026.026 0 01.01.217zM.106.199V.098h.06v.101h-.06z"/><path fill="none" stroke="#008AAD" stroke-width=".021" stroke-miterlimit="2.613" d="M.236.144l.197.001M.01.217V.079C.01.065.022.054.036.054H.21c.014 0 .026.011.026.025v.138A.026.026 0 01.21.242H.036A.026.026 0 01.01.217zM.106.199V.098h.06v.101h-.06z"/><path fill="#008AAD" fill-rule="nonzero" d="M.084.148v.013L.071.166v.022l.013.005v.012L.028.183V.171L.084.148zM.062.169L.041.177l.021.008V.169z"/><path fill="#F2F5F9" stroke="#008AAD" stroke-width=".021" stroke-miterlimit="2.613" d="M.282.01h.103C.39.01.394.015.394.02v.083a.009.009 0 01-.009.009H.283C.278.112.273.108.273.103V.02c0-.005.004-.01.009-.01z"/></svg>