<?xml version="1.0" encoding="UTF-8"?><!DOCTYPE svg PUBLIC "-//W3C//DTD SVG 1.1//EN" "http://www.w3.org/Graphics/SVG/1.1/DTD/svg11.dtd"><!--Creator: CorelDRAW 2020 (64-Bit)--><svg xmlns="http://www.w3.org/2000/svg" width="25" height="32" shape-rendering="geometricPrecision" text-rendering="geometricPrecision" image-rendering="optimizeQuality" fill-rule="evenodd" clip-rule="evenodd" viewBox="0 0 0.345 0.449"><metadata/><g stroke="#008AAD" stroke-miterlimit="2.613"><path fill="#F2F5F9" stroke-width=".019" d="M.041.056h.064v.015c0 .017.014.031.032.031h.076A.031.031 0 00.244.071V.056h.06c.017 0 .032.014.032.032v.32A.032.032 0 01.304.44H.041A.032.032 0 01.009.408v-.32C.009.07.024.056.041.056z"/><rect fill="#F2F5F9" stroke-width=".019" x=".105" y=".009" width=".139" height=".093" rx=".037" ry=".031"/><path fill="none" stroke-width=".028" d="M.15.21h.107M.151.307h.107M.077.21H.12M.078.307h.043"/></g></svg>