<?xml version="1.0" encoding="UTF-8"?><!DOCTYPE svg PUBLIC "-//W3C//DTD SVG 1.1//EN" "http://www.w3.org/Graphics/SVG/1.1/DTD/svg11.dtd"><!--Creator: CorelDRAW 2020 (64-Bit)--><svg xmlns="http://www.w3.org/2000/svg" width="35" height="35" shape-rendering="geometricPrecision" text-rendering="geometricPrecision" image-rendering="optimizeQuality" fill-rule="evenodd" clip-rule="evenodd" viewBox="0 0 0.7 0.7"><metadata/><circle fill="#ECF7FD" cx=".35" cy=".35" r=".35"/><path fill="none" stroke="#008AAD" stroke-width=".04" stroke-miterlimit="2.613" d="M.377.203a.092.092 0 01.084.091v.059c0 .062-.003.064.05.099H.216C.257.427.278.416.278.353V.294c0-.049.039-.089.087-.091h.012z"/><rect fill="none" stroke="#008AAD" stroke-width=".04" stroke-miterlimit="2.613" x=".332" y=".47" width=".074" height=".044" rx=".012" ry=".012"/><rect fill="none" stroke="#008AAD" stroke-width=".04" stroke-miterlimit="2.613" x=".349" y=".15" width=".044" height=".053" rx=".019" ry=".019"/><path fill="none" stroke="#008AAD" stroke-width=".04" stroke-miterlimit="2.613" d="M.278.171C.233.194.217.238.208.3M.457.167c.045.022.06.067.07.128"/></svg>
