<?xml version="1.0" encoding="UTF-8"?><!DOCTYPE svg PUBLIC "-//W3C//DTD SVG 1.1//EN" "http://www.w3.org/Graphics/SVG/1.1/DTD/svg11.dtd"><!--Creator: CorelDRAW 2020 (64-Bit)--><svg xmlns="http://www.w3.org/2000/svg" width="140" height="140" shape-rendering="geometricPrecision" text-rendering="geometricPrecision" image-rendering="optimizeQuality" fill-rule="evenodd" clip-rule="evenodd" viewBox="0 0 39.173 39.168"><metadata/><rect fill="#E6E7E8" width="39.152" height="39.152" rx="2.023" ry="2.023"/><circle fill="#E6E7E8" cx="19.818" cy="19.328" r="15.605"/><path fill="#D2D3D5" d="M39.152 24.915L25.333 10.742 14.118 26.325l6.033 5.939v2.653l4.754 4.154 11.494.081c1.678.141 2.954-.705 2.753-2.278V24.915z"/><path fill="#FEFEFE" stroke="#FEFEFE" stroke-width=".186" stroke-miterlimit="2.613" d="M13.58 3.718h12.092c.851 0 1.547.696 1.547 1.547v17.432c0 .851-.696 1.547-1.547 1.547l-3.934.001-.013 2.117-1.555.004-.007 1.313-1.052-.001.011-1.31-1.475.003-.022-2.127h-2.387v.909l-1.309-.016.015-.893h-.364a1.551 1.551 0 01-1.547-1.547V5.265c0-.851.696-1.547 1.547-1.547zm4.756.737h2.781c.647 0 1.175.529 1.175 1.175v.625c0 .646-.528 1.175-1.175 1.175h-2.781a1.179 1.179 0 01-1.175-1.175V5.63c0-.646.529-1.175 1.175-1.175z"/><path fill="#D64939" d="M26.802 13.282v9.155c0 .85-.845 1.562-1.695 1.562L21.306 24l-.011 2.022-1.389.001-.008 1.359-.451.001.006-1.347h-1.515l.007-2.127-3.057.01v.946l-.661-.007.015-.945-.662-.004c-.85-.004-1.057-.391-1.057-1.241v-9.401l14.279.015z"/><path fill="#FEFEFE" d="M19.426 28.266h.594v6.341h-.594z"/><rect fill="#E6E7E8" width="39.152" height="39.152" rx="2.023" ry="2.023"/><path fill="#D2D3D5" d="M39.152 15.732L26.903 4.331l-13.025 20.92 6.175 7.013-.033 2.343 4.885 4.464 11.494.081c1.678.141 2.954-.705 2.753-2.278V15.732z"/><path fill="#FEFEFE" stroke="#FEFEFE" stroke-width=".186" stroke-miterlimit="2.613" d="M13.58 3.718h12.092c.851 0 1.547.696 1.547 1.547v17.432c0 .851-.696 1.547-1.547 1.547l-3.934.001-.013 2.117-1.555.004-.007 1.313-1.052-.001.011-1.31-1.475.003-.022-2.127h-2.387v.909l-1.309-.016.015-.893h-.364a1.551 1.551 0 01-1.547-1.547V5.265c0-.851.696-1.547 1.547-1.547zm4.756.737h2.781c.647 0 1.175.529 1.175 1.175v.625c0 .646-.528 1.175-1.175 1.175h-2.781a1.179 1.179 0 01-1.175-1.175V5.63c0-.646.529-1.175 1.175-1.175z"/><path fill="#848688" d="M26.826 8.916l-.024 13.521c-.001.85-.845 1.562-1.695 1.562L21.306 24l-.011 2.022-1.389.001-.008 1.359-.451.001.006-1.348-1.515.001.007-2.127-3.057.01v.946l-.661-.007.015-.945-.662-.004c-.85-.005-1.058-.391-1.057-1.241l.024-13.766 14.279.014z"/><path fill="#FEFEFE" d="M19.426 28.266h.594v6.341h-.594z"/><rect fill="#FEFEFE" x="14.286" y="12.593" width="10.938" height="8.465" rx="1.27" ry="1.27"/><path fill="#373435" fill-rule="nonzero" d="M24.211 15.493h-.52l-.205-.542h-.956l-.197.542h-.51l.924-2.382h.51l.954 2.382zm-.882-.945l-.331-.881-.321.881h.652z"/><path fill="none" stroke="#96989A" stroke-width=".373" stroke-miterlimit="2.613" d="M15.563 15.504l4.7.044M15.622 16.595l3.832.023"/><path fill="none" stroke="#96989A" stroke-width=".559" stroke-miterlimit="2.613" d="M15.592 18.615h2.184M20.583 18.627l-2.028-.001"/><path fill="none" stroke="#96989A" stroke-width=".373" stroke-miterlimit="2.613" d="M15.578 14.342l3.832.023"/><path fill="#96989A" fill-rule="nonzero" d="M16.044 20.079h-.099l-.039-.104h-.183l-.038.104h-.097l.177-.455h.097l.182.455zm-.168-.181l-.063-.168-.062.168h.125zm.217.181v-.455h.194a.34.34 0 01.106.012.11.11 0 01.053.043c.013.021.02.045.02.072 0 .034-.01.062-.03.085a.15.15 0 01-.09.042c.02.011.036.024.049.038.013.014.03.038.052.074l.055.089h-.109l-.066-.1a.604.604 0 00-.049-.066.061.061 0 00-.028-.019.132.132 0 00-.046-.005h-.019v.19h-.092zm.092-.263h.068a.424.424 0 00.083-.005.05.05 0 00.025-.02.053.053 0 00.01-.034.05.05 0 00-.013-.037.05.05 0 00-.034-.018.72.72 0 00-.067-.002h-.072v.116zm.658.095l.089.027a.206.206 0 01-.068.112.195.195 0 01-.121.036.196.196 0 01-.149-.062.237.237 0 01-.059-.169.25.25 0 01.059-.177.201.201 0 01.154-.063.19.19 0 01.136.05.178.178 0 01.047.084l-.091.021a.098.098 0 00-.034-.055.095.095 0 00-.062-.021.103.103 0 00-.082.036c-.021.025-.032.064-.032.118 0 .057.011.098.031.123a.103.103 0 00.081.036.09.09 0 00.063-.023.133.133 0 00.038-.073zm.157.046v-.087h.172v.087H17zm.203-.103c0-.047.007-.086.021-.117a.22.22 0 01.043-.063.176.176 0 01.058-.041.252.252 0 01.098-.018c.068 0 .121.021.162.063.04.042.06.1.06.174 0 .073-.02.131-.06.172a.21.21 0 01-.16.063.216.216 0 01-.162-.062.238.238 0 01-.06-.171zm.095-.003c0 .051.012.09.036.117.024.027.054.04.091.04a.115.115 0 00.09-.04c.024-.026.035-.066.035-.118 0-.053-.011-.092-.034-.117a.115.115 0 00-.091-.039.117.117 0 00-.092.039c-.023.026-.035.065-.035.118zm.718.228h-.087v-.169a.234.234 0 00-.006-.068.047.047 0 00-.018-.025.05.05 0 00-.03-.008.076.076 0 00-.042.012.057.057 0 00-.024.033.254.254 0 00-.007.075v.15h-.087v-.33h.08v.048a.134.134 0 01.11-.055c.019 0 .037.003.053.01a.086.086 0 01.036.027c.008.01.014.023.017.036a.286.286 0 01.005.059v.205zm.279-.105l.087.015a.144.144 0 01-.053.073.16.16 0 01-.091.025c-.057 0-.099-.019-.127-.056a.194.194 0 01-.032-.114c0-.055.014-.098.043-.129a.139.139 0 01.108-.046c.049 0 .087.016.116.048.028.033.042.082.04.149h-.218a.095.095 0 00.021.061.069.069 0 00.05.021.052.052 0 00.035-.011.069.069 0 00.021-.036zm.005-.088c-.001-.025-.007-.045-.02-.058a.058.058 0 00-.045-.019.06.06 0 00-.047.02.085.085 0 00-.018.057h.13zm.311.045l.089-.009c.006.03.016.052.033.066a.097.097 0 00.066.021c.03 0 .052-.006.067-.018a.057.057 0 00.022-.044.045.045 0 00-.009-.028.077.077 0 00-.033-.019.766.766 0 00-.073-.02.277.277 0 01-.104-.045.123.123 0 01-.022-.158.126.126 0 01.057-.046.236.236 0 01.089-.016c.057 0 .1.013.129.038a.133.133 0 01.045.101l-.092.004c-.004-.024-.012-.041-.025-.051-.013-.01-.032-.015-.058-.015a.104.104 0 00-.062.016.034.034 0 00-.015.029c0 .01.005.019.014.027.012.01.04.02.084.031.045.01.078.021.099.032a.133.133 0 01.05.047.133.133 0 01.018.072.13.13 0 01-.083.124.255.255 0 01-.099.017c-.057 0-.102-.013-.132-.04a.17.17 0 01-.055-.116zm.427-.021c0-.029.007-.058.021-.085a.152.152 0 01.061-.062.18.18 0 01.087-.021c.05 0 .091.016.123.048a.169.169 0 01.047.123c0 .05-.016.092-.048.125a.164.164 0 01-.121.049.192.192 0 01-.087-.021.133.133 0 01-.062-.06.2.2 0 01-.021-.096zm.089.004c0 .033.008.058.023.075a.074.074 0 00.115 0c.015-.017.023-.042.023-.075 0-.033-.008-.058-.023-.075a.077.077 0 00-.115 0 .112.112 0 00-.023.075zm.319.165v-.455h.087v.455h-.087zm.395 0v-.05a.13.13 0 01-.048.042.122.122 0 01-.062.016.121.121 0 01-.06-.015.084.084 0 01-.038-.041.182.182 0 01-.012-.073v-.209h.087v.152c0 .046.002.075.005.085a.042.042 0 00.018.025.053.053 0 00.032.009.068.068 0 00.04-.012.068.068 0 00.025-.031.384.384 0 00.006-.089v-.139h.087v.33h-.08zm.32-.33v.069h-.059v.134l.001.047a.021.021 0 00.008.011.024.024 0 00.015.004c.008 0 .02-.002.035-.008l.007.068a.183.183 0 01-.068.013.118.118 0 01-.043-.008.053.053 0 01-.027-.021.083.083 0 01-.013-.034c-.002-.01-.002-.031-.002-.062v-.144h-.041v-.069h.041v-.066l.087-.051v.117h.059zm.061-.045v-.08h.087v.08h-.087zm0 .375v-.33h.087v.33h-.087zm.157-.169c0-.029.007-.058.021-.085a.146.146 0 01.061-.062.18.18 0 01.087-.021c.05 0 .091.016.123.048a.17.17 0 01.048.123c0 .05-.017.092-.049.125a.164.164 0 01-.121.049.192.192 0 01-.087-.021.133.133 0 01-.062-.06.2.2 0 01-.021-.096zm.089.004c0 .033.008.058.023.075a.074.074 0 00.115 0c.015-.017.023-.042.023-.075 0-.033-.008-.058-.023-.075a.077.077 0 00-.115 0 .112.112 0 00-.023.075zm.619.165H21v-.169a.234.234 0 00-.006-.068.047.047 0 00-.018-.025.053.053 0 00-.031-.008.075.075 0 00-.041.012.057.057 0 00-.024.033.254.254 0 00-.007.075v.15h-.087v-.33h.08v.048a.134.134 0 01.11-.055c.019 0 .037.003.053.01a.086.086 0 01.036.027c.008.01.014.023.017.036a.286.286 0 01.005.059v.205zm.057-.093l.088-.014c.003.017.011.03.022.039a.078.078 0 00.048.013c.023 0 .04-.004.051-.013.008-.005.011-.013.011-.023a.023.023 0 00-.006-.016.074.074 0 00-.029-.012.496.496 0 01-.134-.042.086.086 0 01-.039-.075c0-.028.011-.052.034-.072.022-.019.057-.029.105-.029.045 0 .078.007.1.022a.119.119 0 01.046.066l-.082.015a.054.054 0 00-.02-.03.074.074 0 00-.043-.01.099.099 0 00-.049.009c-.007.005-.01.011-.01.018 0 .006.003.011.008.016a.319.319 0 00.082.024.258.258 0 01.098.039.083.083 0 01.027.065c0 .03-.012.056-.038.078-.025.022-.062.033-.112.033a.188.188 0 01-.107-.027.129.129 0 01-.051-.074z"/><path fill="none" stroke="#96989A" stroke-width=".373" stroke-miterlimit="2.613" d="M21.888 16.553l2.018.023M21.883 17.511l2.019.023"/><path fill="#A7C4D2" fill-opacity=".239" d="M25.285 4.157c1.113-.024 1.457.529 1.542 1.17.024.181.006.375.004.608l-.029 16.502a1.552 1.552 0 01-1.546 1.547l-3.95.001-.011 2.059-1.389.002-.008 1.336-.266-.001.216-18.538c.009-1.028-.015-1.021 1.269-1.012.647.005 1.472-.465 1.48-1.272l.014-1.317c.014-1.35 1.446-1.058 2.674-1.085z"/><path fill="#D64939" d="M19.734 5.547c7.223 0 13.079 5.856 13.079 13.079 0 7.223-5.856 13.079-13.079 13.079-7.224 0-13.08-5.856-13.08-13.079 0-7.223 5.856-13.079 13.08-13.079zm-9.717 18.431L28.58 11.935a11.075 11.075 0 00-8.846-4.401c-6.126 0-11.092 4.966-11.092 11.092 0 1.941.499 3.765 1.375 5.352zm19.679-10.233L11.218 25.733a11.07 11.07 0 008.516 3.985c6.126 0 11.091-4.966 11.091-11.092 0-1.751-.406-3.408-1.129-4.881z"/></svg>