<?xml version="1.0" encoding="UTF-8"?><!DOCTYPE svg PUBLIC "-//W3C//DTD SVG 1.1//EN" "http://www.w3.org/Graphics/SVG/1.1/DTD/svg11.dtd"><!--Creator: CorelDRAW 2020 (64-Bit)--><svg xmlns="http://www.w3.org/2000/svg" width="49" height="49" shape-rendering="geometricPrecision" text-rendering="geometricPrecision" image-rendering="optimizeQuality" fill-rule="evenodd" clip-rule="evenodd" viewBox="0 0 4 4"><metadata/><rect fill="#E6E7E8" width="4" height="4" rx=".207" ry=".207"/><path fill="#D2D3D5" d="M1.334 2.772L2.562 3.99c.41-.001.824.002 1.234 0 .09.004.192-.081.195-.203L4 2.257l-1.2-1-1.466 1.515z"/><path fill="#008AAD" d="M1.467 1.274l.589.59.59-.59a.125.125 0 11.177.177l-.59.59.59.59a.125.125 0 01-.177.176l-.59-.589-.589.589a.125.125 0 01-.177 0 .124.124 0 010-.176l.59-.59-.59-.59a.125.125 0 010-.177.127.127 0 01.177 0z"/></svg>