<?xml version="1.0" encoding="UTF-8"?>
<!DOCTYPE svg PUBLIC "-//W3C//DTD SVG 1.1//EN" "http://www.w3.org/Graphics/SVG/1.1/DTD/svg11.dtd">
<!-- Creator: CorelDRAW 2020 (64-Bit) -->
<svg xmlns="http://www.w3.org/2000/svg" xml:space="preserve" width="32px" height="28px" version="1.1" shape-rendering="geometricPrecision" text-rendering="geometricPrecision" image-rendering="optimizeQuality" fill-rule="evenodd" clip-rule="evenodd"
viewBox="0 0 0.977 0.848"
 xmlns:xlink="http://www.w3.org/1999/xlink"
 xmlns:xodm="http://www.corel.com/coreldraw/odm/2003">
 <g id="Layer_x0020_1">
  <metadata id="CorelCorpID_0Corel-Layer"/>
  <g id="_2326288644368">
   <rect fill="#F2F5F9" width="0.977" height="0.848" rx="0.016" ry="0.083"/>
   <path fill="#008AAD" d="M0.34 0.256l0.027 0 0 -0.044c0,-0.002 0.002,-0.004 0.004,-0.004l0.035 0c0.002,0 0.004,0.002 0.004,0.004l0 0.044 0.162 0 0 -0.044c0,-0.002 0.002,-0.004 0.004,-0.004l0.035 0c0.002,0 0.004,0.002 0.004,0.004l0 0.044 0.024 0c0.02,0 0.035,0.015 0.035,0.035l0 0.299c0,0.019 -0.015,0.035 -0.035,0.035l-0.299 0c-0.019,0 -0.035,-0.016 -0.035,-0.035l0 -0.299c0,-0.02 0.016,-0.035 0.035,-0.035zm0.028 0.097l0.244 0c0.012,0 0.021,0.009 0.021,0.021l0 0.188c0,0.012 -0.009,0.022 -0.021,0.022l-0.244 0c-0.012,0 -0.022,-0.01 -0.022,-0.022l0 -0.188c0,-0.012 0.01,-0.021 0.022,-0.021zm0.029 0.039l0.083 0c0.005,0 0.01,0.004 0.01,0.009l0 0.086c0,0.006 -0.005,0.01 -0.01,0.01l-0.083 0c-0.005,0 -0.01,-0.004 -0.01,-0.01l0 -0.086c0,-0.005 0.005,-0.009 0.01,-0.009z"/>
  </g>
 </g>
</svg>
