<?xml version="1.0" encoding="UTF-8"?><!DOCTYPE svg PUBLIC "-//W3C//DTD SVG 1.1//EN" "http://www.w3.org/Graphics/SVG/1.1/DTD/svg11.dtd"><svg xmlns="http://www.w3.org/2000/svg" width="49.419" height="49.369" shape-rendering="geometricPrecision" text-rendering="geometricPrecision" image-rendering="optimizeQuality" fill-rule="evenodd" clip-rule="evenodd" viewBox="0 0 41.96 41.92"><metadata/><rect fill="#008AAD" width="41.96" height="41.92" rx="2.17" ry="2.17"/><path fill="#006C87" d="M13.99 29.04l12.88 12.77c4.3-.02 8.65.02 12.95 0 .94.03 2.01-.86 2.04-2.13l.09-16.04-12.58-10.48-15.38 15.88z"/><rect fill="#008AAD" stroke="#FEFEFE" stroke-width=".85" stroke-miterlimit="2.613" x="9.54" y="9.51" width="22.16" height="22.16" rx="2.42" ry="2.42"/><g fill="#FEFEFE"><rect transform="matrix(.62382 .59056 -.42244 .44623 23.397 14.63)" width="4.84" height="20.29" rx=".89" ry=".89"/><path d="M14.97 24.8l1.91 1.8c.31.29.42.93.03 1.08l-3.27 1.26c-.32.13-.67-.18-.54-.51l.79-3.61c.15-.39.78-.32 1.08-.03z"/><rect transform="matrix(.62382 .59056 -.09492 .10027 25.878 12.009)" width="4.84" height="20.29" rx=".89" ry=".89"/></g></svg>