<svg xmlns="http://www.w3.org/2000/svg" width="72.255" height="84.044" shape-rendering="geometricPrecision" text-rendering="geometricPrecision" image-rendering="optimizeQuality" fill-rule="evenodd" clip-rule="evenodd" viewBox="0 0 143.24 166.61"><path fill="#F0F1F2" d="M31.48 0h72.01l39.75 40.33v113.08c0 7.26-5.94 13.2-13.2 13.2H31.48c-7.26 0-13.2-5.94-13.2-13.2V13.2c0-7.26 5.94-13.2 13.2-13.2z"/><path fill="#DCE1E5" d="M121.31 50.2l21.93 21.93v-31.8L104.17.69l-.32 30.37z"/><path fill="#B0B7BD" d="M103.55.02l39.69 40.31-24.98-.06c-10.46.17-14.34-1.5-14.41-9.75l-.3-30.51z"/><rect fill="#CAD1D8" y="84.41" width="122.77" height="60.95" rx="4.17" ry="4.34"/><rect fill="#F15642" y="78.93" width="122.77" height="60.95" rx="4.17" ry="4.34"/><path fill="#FEFEFE" fill-rule="nonzero" d="M36.53 112.94H31.4v7.83c0 1.12-.26 1.96-.79 2.54-.53.58-1.2.87-2 .87-.84 0-1.53-.28-2.04-.86-.51-.57-.77-1.42-.77-2.52V99.49c0-1.23.28-2.11.85-2.64.57-.53 1.46-.79 2.7-.79h7.18c2.12 0 3.76.16 4.9.49 1.13.32 2.11.84 2.93 1.56.82.73 1.45 1.62 1.87 2.68.43 1.05.64 2.25.64 3.57 0 2.82-.87 4.95-2.6 6.4-1.74 1.45-4.32 2.18-7.76 2.18zm-1.36-12.67H31.4v8.46h3.77c1.32 0 2.43-.14 3.31-.42.88-.28 1.56-.73 2.03-1.36.46-.62.7-1.45.7-2.47 0-1.22-.36-2.21-1.07-2.98-.8-.82-2.46-1.23-4.96-1.23zM55.02 96.06h7.3c1.9 0 3.53.17 4.89.53 1.36.35 2.59 1.02 3.7 1.98 2.88 2.47 4.32 6.22 4.32 11.24 0 1.66-.14 3.17-.43 4.54s-.74 2.61-1.34 3.71c-.6 1.1-1.38 2.09-2.32 2.95-.74.66-1.55 1.2-2.43 1.6-.88.41-1.83.69-2.84.85-1.01.16-2.16.24-3.42.24h-7.3c-1.02 0-1.78-.15-2.3-.46-.51-.31-.85-.74-1-1.3-.16-.56-.24-1.29-.24-2.18V99.48c0-1.2.27-2.08.81-2.62s1.42-.81 2.62-.81zm2.17 4.44v18.77h4.25c.93 0 1.66-.03 2.19-.08a6.87 6.87 0 001.64-.37c.57-.21 1.06-.49 1.47-.85 1.87-1.58 2.81-4.31 2.81-8.19 0-2.73-.41-4.78-1.24-6.13-.82-1.36-1.84-2.22-3.04-2.59-1.21-.37-2.67-.55-4.38-.55h-3.7zM96.65 100.39H85.62v7.07h9.22c.85 0 1.49.19 1.91.57.42.39.63.9.63 1.54s-.21 1.15-.64 1.53c-.43.38-1.07.57-1.9.57h-9.22v9.1c0 1.16-.26 2.01-.79 2.57-.52.56-1.19.84-2 .84-.83 0-1.51-.28-2.03-.85-.52-.57-.79-1.42-.79-2.56V99.5c0-.8.12-1.46.36-1.97s.61-.88 1.12-1.11c.51-.23 1.16-.35 1.95-.35h13.2c.89 0 1.56.2 1.99.59.43.4.65.92.65 1.56 0 .66-.22 1.18-.65 1.58-.43.39-1.09.59-1.99.59z"/></svg>