<?xml version="1.0" encoding="UTF-8"?><!DOCTYPE svg PUBLIC "-//W3C//DTD SVG 1.1//EN" "http://www.w3.org/Graphics/SVG/1.1/DTD/svg11.dtd"><!--Creator: CorelDRAW 2020 (64-Bit)--><svg xmlns="http://www.w3.org/2000/svg" width="35" height="35" shape-rendering="geometricPrecision" text-rendering="geometricPrecision" image-rendering="optimizeQuality" fill-rule="evenodd" clip-rule="evenodd" viewBox="0 0 7.997 7.997"><metadata/><circle fill="#FEFEFE" cx="3.999" cy="3.999" r="3.999"/><path fill="#008AAD" fill-rule="nonzero" d="M2.407 4.947v-1.94h1.435v.328H2.8v.431h.969v.328H2.8v.525h1.08v.328zM4.11 4.318l.382-.038c.023.128.07.222.139.282.07.06.165.089.284.089.125 0 .22-.026.283-.079a.24.24 0 00.096-.187.18.18 0 00-.04-.118.32.32 0 00-.14-.083 5.06 5.06 0 00-.312-.085c-.209-.052-.356-.117-.441-.193a.508.508 0 01-.177-.391.508.508 0 01.325-.475.96.96 0 01.38-.068c.243 0 .425.054.548.162a.57.57 0 01.193.431l-.393.014c-.016-.1-.052-.172-.107-.216-.054-.044-.136-.066-.246-.066a.44.44 0 00-.265.071.142.142 0 00-.062.121c0 .046.02.085.059.117.049.042.169.086.359.131.19.045.33.092.421.139a.553.553 0 01.214.198.58.58 0 01.077.308.572.572 0 01-.354.529 1.105 1.105 0 01-.423.071c-.245 0-.433-.057-.564-.17-.132-.113-.21-.277-.236-.494z"/></svg>