<?xml version="1.0" encoding="UTF-8"?><!DOCTYPE svg PUBLIC "-//W3C//DTD SVG 1.1//EN" "http://www.w3.org/Graphics/SVG/1.1/DTD/svg11.dtd"><!--Creator: CorelDRAW 2020 (64-Bit)--><svg xmlns="http://www.w3.org/2000/svg" width="35" height="35" shape-rendering="geometricPrecision" text-rendering="geometricPrecision" image-rendering="optimizeQuality" fill-rule="evenodd" clip-rule="evenodd" viewBox="0 0 7.875 7.875"><metadata/><circle fill="#F2F5F9" cx="3.938" cy="3.938" r="3.938"/><path fill="#008AAD" fill-rule="nonzero" d="M2.37 4.871V2.962h1.414v.322H2.757v.424h.955v.323h-.955v.518h1.064v.322zM4.048 4.253l.376-.038a.458.458 0 00.137.277.415.415 0 00.279.089c.123 0 .217-.027.279-.079a.236.236 0 00.095-.184.18.18 0 00-.04-.116.314.314 0 00-.138-.082 4.333 4.333 0 00-.307-.084c-.206-.051-.351-.114-.434-.189a.504.504 0 01.145-.853.938.938 0 01.375-.067c.238 0 .419.053.539.159a.564.564 0 01.19.425l-.387.013c-.016-.098-.051-.169-.105-.212-.054-.043-.135-.065-.242-.065a.435.435 0 00-.261.069.14.14 0 00-.061.119c0 .046.019.084.057.116.049.042.167.084.354.129.187.044.325.09.415.137.089.048.16.112.21.195a.564.564 0 01.076.304.559.559 0 01-.349.52 1.07 1.07 0 01-.415.07c-.242 0-.427-.056-.557-.167-.129-.111-.206-.274-.231-.486z"/></svg>