<?xml version="1.0" encoding="UTF-8"?><!DOCTYPE svg PUBLIC "-//W3C//DTD SVG 1.1//EN" "http://www.w3.org/Graphics/SVG/1.1/DTD/svg11.dtd"><!--Creator: CorelDRAW 2020 (64-Bit)--><svg xmlns="http://www.w3.org/2000/svg" width="27" height="27" shape-rendering="geometricPrecision" text-rendering="geometricPrecision" image-rendering="optimizeQuality" fill-rule="evenodd" clip-rule="evenodd" viewBox="0 0 1.512 1.512"><metadata/><circle fill="#F2F5F9" stroke="#008AAD" stroke-width=".074" stroke-miterlimit="2.613" cx=".756" cy=".756" r=".719"/><path fill="#008AAD" fill-rule="nonzero" d="M.715.984L.714.949a.32.32 0 01.02-.118A.238.238 0 01.78.755.72.72 0 01.863.674.393.393 0 00.942.589.143.143 0 00.96.519a.159.159 0 00-.053-.12.177.177 0 00-.13-.052.174.174 0 00-.124.047C.619.425.598.474.587.541L.468.526A.308.308 0 01.564.322.308.308 0 01.775.251c.093 0 .167.026.222.076a.242.242 0 01.054.299.554.554 0 01-.115.128.548.548 0 00-.074.074.174.174 0 00-.026.055.448.448 0 00-.01.101H.715zm-.021.234v-.133h.132v.133H.694z"/></svg>