<svg xmlns="http://www.w3.org/2000/svg" width="36" height="36"><g data-name="Print Button" transform="translate(13574 7186)"><rect data-name="Rectangle 8618" width="36" height="36" rx="4" transform="translate(-13574 -7186)" fill="#008aad"/><path data-name="Path 11387" d="m-13561.709-7160.256 10.918 10.252c3.648-.014 7.331.014 10.979 0a1.773 1.773 0 0 0 1.732-1.707l.081-12.877-10.667-8.411-13.042 12.744Z" fill="#006c87" fill-rule="evenodd"/><g data-name="Group 4789" stroke="#fff"><g data-name="Rectangle 8619" transform="translate(-13563 -7178)" fill="none" stroke-width="2"><rect width="14" height="6" rx="2" stroke="none"/><rect x="1" y="1" width="12" height="4" rx="1"/></g><g data-name="Rectangle 8620" transform="translate(-13567 -7173)" fill="#008aad" stroke-width="2"><rect width="22" height="8" rx="2" stroke="none"/><rect x="1" y="1" width="20" height="6" rx="1" fill="none"/></g><g data-name="Rectangle 8621" transform="translate(-13563 -7170)" fill="#008aad" stroke-width="2"><rect width="14" height="10" rx="2" stroke="none"/><rect x="1" y="1" width="12" height="8" rx="1" fill="none"/></g><path data-name="Line 3616" fill="none" d="M-13560-7166.5h8"/><path data-name="Line 3617" fill="none" d="M-13560-7165h8"/><path data-name="Line 3618" fill="none" d="M-13560-7163.5h8"/></g></g></svg>