<svg xmlns="http://www.w3.org/2000/svg" width="140" height="140" shape-rendering="geometricPrecision" text-rendering="geometricPrecision" image-rendering="optimizeQuality" fill-rule="evenodd" clip-rule="evenodd" viewBox="0 0 53.045 53.038"><rect fill="#E6E7E8" width="53.017" height="53.017" rx="2.739" ry="2.739"/><circle fill="#E6E7E8" cx="26.836" cy="26.172" r="21.13"/><path fill="#D2D3D5" d="M53.017 33.738L34.304 14.546 19.117 35.648l8.17 8.042v3.592l6.437 5.625 15.565.11c2.272.191 4-.956 3.728-3.085V33.738z"/><path fill="#FEFEFE" stroke="#FEFEFE" stroke-width=".252" stroke-miterlimit="2.613" d="M18.388 5.035h16.375c1.152 0 2.095.943 2.095 2.095v23.605a2.1 2.1 0 01-2.095 2.094l-5.327.001-.018 2.868-2.105.004-.01 1.779-1.425-.002.015-1.774-1.996.005-.03-2.881h-3.233v1.232l-1.772-.023.02-1.209h-.494a2.1 2.1 0 01-2.094-2.094V7.13a2.1 2.1 0 012.094-2.095zm6.441.997h3.767c.875 0 1.591.716 1.591 1.592v.845c0 .876-.716 1.592-1.591 1.592h-3.767a1.596 1.596 0 01-1.591-1.592v-.845c0-.876.716-1.592 1.591-1.592z"/><path fill="#D64939" d="M36.294 17.986v12.397c0 1.15-1.145 2.114-2.296 2.114l-5.147.001-.015 2.739-1.881.002-.01 1.839-.612.002.008-1.825-2.051.001.01-2.881-4.139.014v1.281l-.896-.01.02-1.278-.897-.006c-1.151-.006-1.43-.529-1.43-1.681v-12.73l19.336.021z"/><path fill="#FEFEFE" d="M26.305 38.276h.805v8.586h-.805z"/><rect fill="#E6E7E8" width="53.017" height="53.017" rx="2.739" ry="2.739"/><path fill="#D2D3D5" d="M53.017 21.304L36.43 5.864 18.792 34.193l8.362 9.497-.044 3.172 6.614 6.045 15.565.11c2.272.191 4-.956 3.728-3.085V21.304z"/><path fill="#FEFEFE" stroke="#FEFEFE" stroke-width=".252" stroke-miterlimit="2.613" d="M18.388 5.035h16.375c1.152 0 2.095.943 2.095 2.095v23.605a2.1 2.1 0 01-2.095 2.094l-5.327.001-.018 2.868-2.105.004-.01 1.779-1.425-.002.015-1.774-1.996.005-.03-2.881h-3.233v1.232l-1.772-.023.02-1.209h-.494a2.1 2.1 0 01-2.094-2.094V7.13a2.1 2.1 0 012.094-2.095zm6.441.997h3.767c.875 0 1.591.716 1.591 1.592v.845c0 .876-.716 1.592-1.591 1.592h-3.767a1.596 1.596 0 01-1.591-1.592v-.845c0-.876.716-1.592 1.591-1.592z"/><path fill="#D64939" d="M36.294 20.248v10.135c-.002 1.15-1.145 2.114-2.296 2.114l-5.147.001-.015 2.739-1.881.002-.01 1.839-.612.002.008-1.825-2.051.001.01-2.881-4.139.014v1.281l-.896-.01.02-1.278-.897-.006c-1.15-.006-1.43-.529-1.43-1.681V20.228l19.336.02z"/><path fill="#FEFEFE" d="M26.305 38.276h.805v8.586h-.805z"/><path fill="#FFCC29" d="M16.959 12.065H36.29v8.163H16.959z"/><rect fill="#FEFEFE" x="19.345" y="17.052" width="14.811" height="11.463" rx="1.719" ry="1.719"/><path fill="#373435" fill-rule="nonzero" d="M32.784 20.979h-.703l-.279-.734h-1.293l-.268.734h-.691l1.252-3.225h.69l1.292 3.225zM31.591 19.7l-.448-1.194-.436 1.194h.884z"/><path fill="none" stroke="#96989A" stroke-width=".505" stroke-miterlimit="2.613" d="M21.074 20.994l6.365.06m-6.285 1.418l5.189.03"/><path fill="none" stroke="#96989A" stroke-width=".757" stroke-miterlimit="2.613" d="M21.114 25.207h2.957m3.8.016l-2.745-.002"/><path fill="none" stroke="#96989A" stroke-width=".505" stroke-miterlimit="2.613" d="M21.095 19.421l5.188.031"/><path fill="#96989A" fill-rule="nonzero" d="M21.726 27.189h-.135l-.053-.14h-.247l-.051.14h-.132l.239-.616h.132l.247.616zm-.228-.245l-.086-.228-.083.228h.169zm.294.245v-.616h.262c.066 0 .114.005.144.016a.14.14 0 01.071.059.18.18 0 01.027.097.165.165 0 01-.04.115.2.2 0 01-.122.057.274.274 0 01.066.051.716.716 0 01.071.101l.075.12h-.149l-.089-.135a.844.844 0 00-.066-.09.1.1 0 00-.037-.026.236.236 0 00-.063-.006h-.025v.257h-.125zm.125-.356h.092a.481.481 0 00.111-.007.067.067 0 00.035-.026.079.079 0 00.013-.047.07.07 0 00-.017-.05.071.071 0 00-.046-.024 1.334 1.334 0 00-.091-.002h-.097v.156zm.89.129l.121.037a.279.279 0 01-.092.151.264.264 0 01-.164.049.266.266 0 01-.202-.084.319.319 0 01-.079-.229c0-.103.026-.182.079-.239a.273.273 0 01.209-.086c.076 0 .137.023.184.067a.25.25 0 01.063.114l-.123.029a.129.129 0 00-.045-.075.138.138 0 00-.085-.028.141.141 0 00-.111.049c-.029.033-.043.086-.043.16 0 .077.014.133.042.166a.137.137 0 00.11.049c.033 0 .061-.01.085-.031a.18.18 0 00.051-.099zm.213.062v-.117h.232v.117h-.232zm.275-.14c0-.062.01-.115.029-.158a.284.284 0 01.136-.14.346.346 0 01.133-.025c.091 0 .164.029.219.085a.328.328 0 01.081.236.326.326 0 01-.081.234.287.287 0 01-.217.084.29.29 0 01-.218-.084.316.316 0 01-.082-.232zm.129-.004c0 .07.016.123.048.159a.157.157 0 00.123.054.16.16 0 00.123-.053c.031-.036.047-.09.047-.161 0-.071-.015-.124-.046-.159a.161.161 0 00-.124-.052.159.159 0 00-.124.053c-.032.035-.047.088-.047.159zm.972.309h-.118v-.228a.343.343 0 00-.008-.093.064.064 0 00-.025-.033.069.069 0 00-.041-.012.097.097 0 00-.055.017.082.082 0 00-.034.044.393.393 0 00-.009.103v.202h-.118v-.447h.109v.066a.181.181 0 01.148-.075c.026 0 .05.004.072.014a.116.116 0 01.072.085.331.331 0 01.007.08v.277zm.377-.141l.118.019a.19.19 0 01-.071.099.21.21 0 01-.123.034c-.077 0-.135-.026-.172-.076a.26.26 0 01-.044-.154c0-.074.019-.132.058-.174a.189.189 0 01.146-.063c.066 0 .119.022.157.066.039.043.057.111.055.201h-.295c.001.035.01.063.028.082.019.02.041.029.068.029a.073.073 0 00.047-.015.093.093 0 00.028-.048zm.007-.12c-.001-.034-.009-.06-.026-.078a.081.081 0 00-.062-.027.084.084 0 00-.063.028.112.112 0 00-.025.077h.176zm.421.061l.121-.012a.15.15 0 00.044.089c.023.02.053.029.09.029.04 0 .07-.009.091-.025a.077.077 0 00.03-.06.054.054 0 00-.013-.037.104.104 0 00-.044-.027 1.366 1.366 0 00-.099-.026.335.335 0 01-.14-.062.16.16 0 01-.03-.212.159.159 0 01.076-.063.315.315 0 01.121-.022c.077 0 .136.018.174.052.039.034.06.08.062.137l-.125.004a.105.105 0 00-.034-.068c-.017-.014-.044-.021-.078-.021a.138.138 0 00-.084.022.047.047 0 00-.02.039c0 .014.006.027.019.037a.314.314 0 00.113.041c.061.015.105.03.134.045a.166.166 0 01.068.063.175.175 0 01.025.097.18.18 0 01-.113.168.347.347 0 01-.134.023c-.078 0-.138-.018-.179-.054a.232.232 0 01-.075-.157zm.578-.029c0-.039.01-.077.029-.114a.201.201 0 01.082-.084.238.238 0 01.119-.029.223.223 0 01.23.232.227.227 0 01-.229.235.252.252 0 01-.117-.028.19.19 0 01-.085-.081.279.279 0 01-.029-.131zm.121.006c0 .045.011.079.032.102a.1.1 0 00.078.036c.03 0 .056-.012.077-.036.021-.023.031-.058.031-.102 0-.044-.01-.078-.031-.102a.101.101 0 00-.077-.035.102.102 0 00-.078.035.15.15 0 00-.032.102zm.432.223v-.616h.118v.616h-.118zm.535 0v-.067a.18.18 0 01-.065.057.174.174 0 01-.165.001.118.118 0 01-.051-.055.245.245 0 01-.016-.1v-.283h.117v.206c0 .063.003.101.007.115a.057.057 0 00.024.034.074.074 0 00.044.013c.02 0 .038-.006.054-.017a.086.086 0 00.033-.041.478.478 0 00.009-.121v-.189h.118v.447h-.109zm.434-.447v.094h-.081v.181c0 .037.001.058.002.064a.027.027 0 00.011.015.032.032 0 00.02.006.14.14 0 00.047-.012l.01.092a.227.227 0 01-.093.018.148.148 0 01-.057-.011.073.073 0 01-.037-.028.103.103 0 01-.017-.046.512.512 0 01-.004-.084v-.195h-.054v-.094h.054v-.088l.118-.07v.158h.081zm.082-.06v-.109h.118v.109h-.118zm0 .507v-.447h.118v.447h-.118zm.212-.229c0-.039.01-.077.029-.114a.196.196 0 01.082-.084.238.238 0 01.119-.029.223.223 0 01.23.232.227.227 0 01-.229.235.252.252 0 01-.117-.028.185.185 0 01-.085-.081.279.279 0 01-.029-.131zm.121.006c0 .045.011.079.032.102a.099.099 0 00.077.036.1.1 0 00.078-.036c.021-.023.031-.058.031-.102 0-.044-.01-.078-.031-.102a.102.102 0 00-.078-.035.101.101 0 00-.077.035.15.15 0 00-.032.102zm.838.223h-.118v-.228a.358.358 0 00-.007-.093.064.064 0 00-.025-.033.07.07 0 00-.041-.012.098.098 0 00-.056.017.085.085 0 00-.033.044.343.343 0 00-.01.103v.202h-.118v-.447h.11v.066a.18.18 0 01.148-.075c.026 0 .05.004.071.014a.12.12 0 01.05.036.138.138 0 01.023.049.406.406 0 01.006.08v.277zm.077-.126l.119-.018c.005.023.015.04.031.052a.103.103 0 00.065.018c.03 0 .053-.006.068-.017a.036.036 0 00.016-.032.033.033 0 00-.008-.022.114.114 0 00-.04-.016.65.65 0 01-.181-.057.118.118 0 01-.053-.101c0-.039.015-.071.046-.098.03-.026.078-.039.142-.039.061 0 .106.01.136.03.03.02.05.049.061.089l-.111.02a.067.067 0 00-.027-.04.1.1 0 00-.057-.014c-.031 0-.054.004-.067.013-.009.006-.014.014-.014.024 0 .008.004.015.012.021.011.008.048.02.111.034a.337.337 0 01.132.052.11.11 0 01.037.088.137.137 0 01-.051.106.232.232 0 01-.152.044.25.25 0 01-.145-.037.171.171 0 01-.07-.1z"/><path fill="none" stroke="#96989A" stroke-width=".505" stroke-miterlimit="2.613" d="M29.638 22.415l2.734.03m-2.739 1.267l2.733.031"/><path fill="#A7C4D2" fill-opacity=".239" d="M34.239 5.629c1.507-.033 1.973.716 2.088 1.585.032.245.007.507.006.822l-.039 22.347a2.103 2.103 0 01-2.095 2.094l-5.348.002-.015 2.787-1.881.003-.01 1.809h-.361l.292-25.103c.013-1.392-.02-1.384 1.72-1.371.875.007 1.992-.63 2.004-1.722l.018-1.784c.019-1.827 1.959-1.432 3.621-1.469z"/></svg>