<?xml version="1.0" encoding="UTF-8"?><!DOCTYPE svg PUBLIC "-//W3C//DTD SVG 1.1//EN" "http://www.w3.org/Graphics/SVG/1.1/DTD/svg11.dtd"><!--Creator: CorelDRAW 2020 (64-Bit)--><svg xmlns="http://www.w3.org/2000/svg" width="28" height="28" shape-rendering="geometricPrecision" text-rendering="geometricPrecision" image-rendering="optimizeQuality" fill-rule="evenodd" clip-rule="evenodd" viewBox="0 0 0.431 0.431"><metadata/><rect fill="none" stroke="#008AAD" stroke-width=".01" stroke-miterlimit="2.613" x=".219" y=".136" width=".067" height=".038" rx=".005" ry=".005"/><path fill="#F2F5F9" d="M.215.393V.365H.214l.001.028zM.113.202h.198-.198zM.112.254h.197-.197zM.229.33v.026c0 .008.001.007-.006.007H.206C.199.363.2.364.2.357V.33H.139A.027.027 0 01.112.304V.121c0-.015.012-.027.027-.027h.144C.298.094.31.106.31.121v.183A.027.027 0 01.283.33H.229zM.161.331h.01l.002.003v.011L.171.348h-.01L.159.345V.334L.161.331z"/><path fill="none" stroke="#008AAD" stroke-width=".021" stroke-miterlimit="2.613" d="M.215.393V.365H.214M.113.202h.198M.112.254h.197M.229.33v.026c0 .008.001.007-.006.007H.206C.199.363.2.364.2.357V.33H.139A.027.027 0 01.112.304V.121c0-.015.012-.027.027-.027h.144C.298.094.31.106.31.121v.183A.027.027 0 01.283.33H.229zM.161.331h.01l.002.003v.011L.171.348h-.01L.159.345V.334L.161.331z"/><path fill="none" stroke="#008AAD" stroke-width=".021" stroke-miterlimit="2.613" d="M.215.01a.205.205 0 11.001.411A.205.205 0 01.215.01zM.056.337L.387.11"/><path fill="#008AAD" fill-rule="nonzero" d="M.199.177H.186L.181.163H.157L.152.177H.14l.023-.06h.012l.024.06zM.177.153L.169.131.161.153h.016z"/></svg>