<svg xmlns="http://www.w3.org/2000/svg" width="141.399" height="206.543" shape-rendering="geometricPrecision" text-rendering="geometricPrecision" image-rendering="optimizeQuality" fill-rule="evenodd" clip-rule="evenodd" viewBox="0 0 265.69 388.1"><path fill="#C4161C" d="M175.32 24.57c.35.36.7.72 1.04 1.09 13.82 14.82 22.28 34.7 22.28 56.57 0 45.81-37.14 82.94-82.94 82.94-21.86 0-41.75-8.46-56.57-22.28-.79-.74-1.56-1.49-2.32-2.25l17.93-17.55c.83.83 1.68 1.64 2.56 2.42 10.22 9.07 23.67 14.59 38.41 14.59 31.95 0 57.86-25.9 57.86-57.86 0-14.9-5.64-28.49-14.89-38.75-.41-.46-.84-.91-1.27-1.36l17.92-17.55z"/><path fill="#EC1C24" d="M56.87 140.6c-.35-.36-.7-.72-1.04-1.09-13.82-14.82-22.28-34.71-22.28-56.57C33.55 37.13 70.69 0 116.49 0c21.86 0 41.75 8.46 56.57 22.28.79.74 1.56 1.49 2.32 2.25l-17.93 17.55c-.83-.83-1.68-1.64-2.56-2.42-10.22-9.07-23.67-14.59-38.41-14.59-31.95 0-57.86 25.9-57.86 57.86 0 14.9 5.64 28.49 14.89 38.75.42.46.84.91 1.27 1.36l-17.92 17.55z"/><path fill="#C4161C" d="M203.52 388.1l26.37-.13.26-60.8-26.88 26.11zM82.94 361.6l-56.19-.25L.13 387.21l83.33.25z"/><path fill="#EC1C24" d="M211.33 233.86l-19.58 19.07c-11.95-20.44-37.71-42.57-84.23-40.96-32.31 1.12-65.73 21.88-78.43 61.66-2.62 8.21-2.98 11.48-2.91 19.87l.57 67.84L.13 387.2 0 286.72c1.88-24.66 13.09-67.73 70.85-93.82 21.97-9.92 56.13-9.1 72.51-5.38 32.52 7.38 56.45 27.56 67.97 46.34z"/><path fill="#54C3BB" d="M133 351.02l114.13-115.6 18.56 17.92-114.3 115.97z"/><path fill="#419B96" d="M97.54 316.51l-17.79 19.07 33.53 33.8L133 351.02z"/><path fill="#613B70" d="M131.43 387.55l20-18.23-18.43-18.3z"/><path fill="#7A4C8E" d="M131.43 387.55l-18.18-18.14L133 351.02z"/><path fill="#C4161C" d="M211.33 233.86l-19.58 19.07c-7.34-12.55-19.89-25.75-39.26-33.68l15.56-23.08c20 9.68 34.91 24.06 43.28 37.69z"/></svg>