<?xml version="1.0" encoding="UTF-8"?><!DOCTYPE svg PUBLIC "-//W3C//DTD SVG 1.1//EN" "http://www.w3.org/Graphics/SVG/1.1/DTD/svg11.dtd"><!--Creator: CorelDRAW 2020 (64-Bit)--><svg xmlns="http://www.w3.org/2000/svg" width="140" height="140" shape-rendering="geometricPrecision" text-rendering="geometricPrecision" image-rendering="optimizeQuality" fill-rule="evenodd" clip-rule="evenodd" viewBox="0 0 39.144 39.138"><metadata/><rect fill="#E6E7E8" width="39.123" height="39.123" rx="2.022" ry="2.022"/><circle fill="#E6E7E8" cx="19.803" cy="19.313" r="15.593"/><path fill="#D2D3D5" d="M39.123 24.896L25.314 10.734 14.107 26.306l6.029 5.934v2.651l4.75 4.151 11.486.081c1.677.141 2.952-.705 2.751-2.276V24.896z"/><path fill="#FEFEFE" stroke="#FEFEFE" stroke-width=".186" stroke-miterlimit="2.613" d="M13.569 3.715h12.084c.85 0 1.545.696 1.545 1.546V22.68a1.55 1.55 0 01-1.545 1.546h-3.932l-.013 2.116-1.553.004-.007 1.312-1.052-.001.011-1.309-1.473.003-.022-2.125h-2.386v.908l-1.307-.016.014-.892h-.364a1.55 1.55 0 01-1.545-1.546V5.261c0-.85.695-1.546 1.545-1.546zm4.753.736h2.779c.646 0 1.175.529 1.175 1.175v.624c0 .646-.529 1.174-1.175 1.174h-2.779a1.177 1.177 0 01-1.174-1.174v-.624c0-.646.528-1.175 1.174-1.175z"/><path fill="#D64939" d="M26.782 13.272v9.148c0 .849-.845 1.561-1.694 1.561H21.29l-.011 2.022-1.388.001-.008 1.357-.451.001.006-1.346h-1.514l.007-2.125-3.054.01v.945l-.661-.007.015-.944-.662-.004c-.849-.004-1.055-.39-1.055-1.241v-9.393l14.268.015z"/><path fill="#FEFEFE" d="M19.411 28.245h.594v6.336h-.594z"/><rect fill="#E6E7E8" width="39.123" height="39.123" rx="2.022" ry="2.022"/><path fill="#D2D3D5" d="M39.123 15.72L26.882 4.327 13.867 25.232l6.17 7.008-.032 2.341 4.881 4.461 11.486.081c1.677.141 2.952-.705 2.751-2.276V15.72z"/><path fill="#FEFEFE" stroke="#FEFEFE" stroke-width=".186" stroke-miterlimit="2.613" d="M13.569 3.715h12.084c.85 0 1.545.696 1.545 1.546V22.68a1.55 1.55 0 01-1.545 1.546h-3.932l-.013 2.116-1.553.004-.007 1.312-1.052-.001.011-1.309-1.473.003-.022-2.125h-2.386v.908l-1.307-.016.014-.892h-.364a1.55 1.55 0 01-1.545-1.546V5.261c0-.85.695-1.546 1.545-1.546zm4.753.736h2.779c.646 0 1.175.529 1.175 1.175v.624c0 .646-.529 1.174-1.175 1.174h-2.779a1.177 1.177 0 01-1.174-1.174v-.624c0-.646.528-1.175 1.174-1.175z"/><path fill="#848688" d="M26.806 8.91l-.024 13.51c-.001.849-.845 1.561-1.694 1.561H21.29l-.011 2.022-1.388.001-.008 1.357-.451.001.006-1.346h-1.514l.007-2.125-3.054.01v.945l-.661-.007.015-.944-.662-.004c-.849-.005-1.056-.391-1.055-1.241l.024-13.755 14.268.015z"/><path fill="#FEFEFE" d="M19.411 28.245h.594v6.336h-.594z"/><rect fill="#FEFEFE" x="14.275" y="12.583" width="10.929" height="8.459" rx="1.269" ry="1.269"/><path fill="#373435" fill-rule="nonzero" d="M24.193 15.481h-.52l-.205-.542h-.955l-.197.542h-.51l.924-2.38h.509l.954 2.38zm-.881-.944l-.331-.881-.321.881h.652z"/><path fill="none" stroke="#96989A" stroke-width=".373" stroke-miterlimit="2.613" d="M15.551 15.492l4.697.044M15.61 16.583l3.829.022"/><path fill="none" stroke="#96989A" stroke-width=".559" stroke-miterlimit="2.613" d="M15.581 18.601h2.182M20.567 18.613l-2.026-.002"/><path fill="none" stroke="#96989A" stroke-width=".373" stroke-miterlimit="2.613" d="M15.567 14.332l3.828.022"/><path fill="#96989A" fill-rule="nonzero" d="M16.032 20.063h-.099l-.039-.103h-.183l-.038.103h-.097l.177-.454h.097l.182.454zm-.168-.18l-.063-.168-.062.168h.125zm.217.18v-.454h.193c.049 0 .084.004.106.012.022.008.04.023.053.044a.13.13 0 01.02.071c0 .034-.01.062-.03.085a.147.147 0 01-.09.042c.02.011.037.024.049.038a.432.432 0 01.052.074l.056.088h-.11l-.066-.099a.665.665 0 00-.048-.067.067.067 0 00-.028-.018.135.135 0 00-.046-.005h-.019v.189h-.092zm.092-.262h.068a.41.41 0 00.082-.005.052.052 0 00.026-.02.06.06 0 00.009-.034.057.057 0 00-.012-.037.062.062 0 00-.034-.018l-.067-.001h-.072v.115zm.657.095l.089.027a.2.2 0 01-.068.112.195.195 0 01-.121.036.198.198 0 01-.149-.062.236.236 0 01-.058-.169c0-.076.019-.135.059-.177a.2.2 0 01.154-.063c.055 0 .101.017.135.05a.17.17 0 01.047.084l-.091.021a.088.088 0 00-.034-.055.093.093 0 00-.062-.021.101.101 0 00-.082.037c-.021.024-.031.063-.031.117 0 .057.01.098.031.123a.1.1 0 00.08.036.088.088 0 00.063-.023.13.13 0 00.038-.073zm.157.046v-.087h.172v.087h-.172zm.203-.103c0-.047.007-.086.021-.117a.203.203 0 01.043-.062.15.15 0 01.058-.041.252.252 0 01.098-.019c.067 0 .121.021.161.063.041.042.061.1.061.174 0 .073-.02.131-.06.172a.212.212 0 01-.16.063.216.216 0 01-.162-.062.238.238 0 01-.06-.171zm.095-.003c0 .051.012.09.036.117.023.027.054.04.09.04a.116.116 0 00.091-.04c.023-.026.035-.066.035-.118 0-.053-.011-.092-.034-.117a.117.117 0 00-.092-.039.117.117 0 00-.091.039c-.023.026-.035.065-.035.118zm.717.227h-.087v-.168a.298.298 0 00-.005-.068.048.048 0 00-.049-.033.073.073 0 00-.041.012.064.064 0 00-.025.033.295.295 0 00-.007.075v.149h-.087v-.329h.081v.048a.132.132 0 01.109-.055c.019 0 .037.003.053.01a.086.086 0 01.036.027.085.085 0 01.017.036.23.23 0 01.005.059v.204zm.279-.104l.087.015a.144.144 0 01-.053.073.16.16 0 01-.09.025c-.057 0-.1-.019-.127-.057a.185.185 0 01-.033-.113c0-.055.014-.098.043-.129a.139.139 0 01.108-.046c.049 0 .087.016.116.048.028.033.042.082.04.149h-.217c0 .026.007.046.021.061.013.014.03.021.05.021a.05.05 0 00.034-.011.069.069 0 00.021-.036zm.005-.088c-.001-.025-.007-.045-.019-.058a.062.062 0 00-.046-.019.063.063 0 00-.047.02.085.085 0 00-.018.057h.13zm.31.045l.09-.009c.005.03.016.052.033.066a.097.097 0 00.066.021.107.107 0 00.067-.018.057.057 0 00.022-.044.04.04 0 00-.01-.028.084.084 0 00-.032-.02l-.073-.019a.277.277 0 01-.104-.045.12.12 0 01-.041-.092.121.121 0 01.076-.112.236.236 0 01.089-.016c.057 0 .1.013.128.038a.138.138 0 01.046.102l-.092.003a.082.082 0 00-.025-.051c-.013-.01-.032-.015-.058-.015a.102.102 0 00-.062.016.034.034 0 00-.015.029c0 .01.005.02.014.027a.24.24 0 00.084.031.44.44 0 01.099.032.133.133 0 01.05.047.133.133 0 01.018.072.128.128 0 01-.022.073.128.128 0 01-.061.051.259.259 0 01-.099.017.198.198 0 01-.132-.04.178.178 0 01-.056-.116zm.427-.021c0-.029.007-.058.021-.085a.158.158 0 01.061-.062.182.182 0 01.088-.021c.049 0 .09.016.122.048a.17.17 0 01.048.123.169.169 0 01-.17.174.185.185 0 01-.086-.021.152.152 0 01-.063-.06.2.2 0 01-.021-.096zm.09.004c0 .033.007.058.023.075a.071.071 0 00.057.027.071.071 0 00.057-.027c.016-.017.023-.042.023-.075 0-.033-.007-.058-.023-.075a.073.073 0 00-.057-.026.073.073 0 00-.057.026c-.016.017-.023.043-.023.075zm.318.164v-.454h.087v.454h-.087zm.395 0v-.049a.13.13 0 01-.048.042.133.133 0 01-.062.016.115.115 0 01-.059-.015.086.086 0 01-.039-.041.182.182 0 01-.012-.073v-.209h.087v.152c0 .046.002.074.005.085a.05.05 0 00.018.025.053.053 0 00.032.009.068.068 0 00.04-.012.068.068 0 00.025-.031.384.384 0 00.006-.089v-.139h.087v.329h-.08zm.32-.329v.069h-.06v.133c0 .028.001.043.002.048a.021.021 0 00.008.011.024.024 0 00.015.004.135.135 0 00.035-.008l.007.068a.184.184 0 01-.069.013.116.116 0 01-.042-.008c-.013-.006-.022-.012-.027-.021a.076.076 0 01-.013-.034.4.4 0 01-.003-.062v-.144h-.04v-.069h.04v-.066l.087-.051v.117h.06zm.061-.045v-.08h.087v.08h-.087zm0 .374v-.329h.087v.329h-.087zm.156-.168a.174.174 0 01.082-.147.182.182 0 01.088-.021.164.164 0 01.17.171.169.169 0 01-.17.174.185.185 0 01-.086-.021.144.144 0 01-.062-.06.19.19 0 01-.022-.096zm.09.004c0 .033.007.058.023.075a.074.074 0 00.114 0c.016-.017.023-.042.023-.075 0-.033-.007-.058-.023-.075a.073.073 0 00-.057-.026.076.076 0 00-.057.026c-.016.017-.023.043-.023.075zm.618.164h-.087v-.168a.234.234 0 00-.006-.068.042.042 0 00-.018-.025.05.05 0 00-.03-.008.07.07 0 00-.041.012.059.059 0 00-.025.033.254.254 0 00-.007.075v.149h-.087v-.329h.081v.048a.132.132 0 01.109-.055c.019 0 .037.003.053.01a.086.086 0 01.036.027.1.1 0 01.017.036.286.286 0 01.005.059v.204zm.057-.092l.088-.014c.003.017.011.03.022.039a.085.085 0 00.048.013c.023 0 .039-.004.051-.013.008-.005.011-.013.011-.023a.021.021 0 00-.006-.016c-.004-.005-.014-.008-.029-.012a.536.536 0 01-.134-.042.086.086 0 01-.039-.075c0-.028.011-.052.034-.072.022-.019.057-.029.105-.029.045 0 .078.007.1.022a.113.113 0 01.045.066l-.081.015a.055.055 0 00-.021-.03c-.009-.007-.023-.01-.042-.01a.099.099 0 00-.049.009c-.007.005-.01.011-.01.018 0 .006.002.011.008.016a.319.319 0 00.082.024.258.258 0 01.098.039.082.082 0 01.027.065c0 .03-.013.056-.038.078s-.062.033-.112.033a.18.18 0 01-.107-.028.123.123 0 01-.051-.073z"/><path fill="none" stroke="#96989A" stroke-width=".373" stroke-miterlimit="2.613" d="M21.871 16.541l2.017.022M21.867 17.498l2.017.022"/><path fill="#A7C4D2" fill-opacity=".239" d="M25.266 4.154c1.112-.025 1.456.528 1.541 1.169.023.181.005.374.004.607l-.029 16.49a1.552 1.552 0 01-1.546 1.546l-3.946.001-.011 2.057-1.388.002-.008 1.335h-.266l.216-18.525c.009-1.026-.015-1.02 1.268-1.011.646.005 1.471-.465 1.479-1.27l.014-1.317c.014-1.349 1.445-1.057 2.672-1.084z"/></svg>