<?xml version="1.0" encoding="UTF-8"?>
<!DOCTYPE svg PUBLIC "-//W3C//DTD SVG 1.1//EN" "http://www.w3.org/Graphics/SVG/1.1/DTD/svg11.dtd">
<!-- Creator: CorelDRAW 2020 (64-Bit) -->
<svg xmlns="http://www.w3.org/2000/svg" xml:space="preserve" width="32px" height="28px" version="1.1" shape-rendering="geometricPrecision" text-rendering="geometricPrecision" image-rendering="optimizeQuality" fill-rule="evenodd" clip-rule="evenodd"
viewBox="0 0 2.04 1.77"
 xmlns:xlink="http://www.w3.org/1999/xlink"
 xmlns:xodm="http://www.corel.com/coreldraw/odm/2003">
 <g id="Layer_x0020_1">
  <metadata id="CorelCorpID_0Corel-Layer"/>
  <g id="_2325926279616">
   <rect fill="#F2F5F9" width="2.04" height="1.77" rx="0.032" ry="0.174"/>
   <path fill="#008AAD" stroke="#008AAD" stroke-width="0.042" stroke-miterlimit="2.61313" d="M0.602 0.794l0.389 0.389c0.001,0.001 0.002,0.002 0.003,0.003l0 0c0.011,0.011 0.028,0.015 0.043,0.009 0.005,-0.002 0.01,-0.005 0.014,-0.009l0 0 0.002 -0.002 0.389 -0.39c0.016,-0.015 0.016,-0.041 0,-0.057l0 0c0,-0.022 -0.041,-0.015 -0.057,0l-0.311 0.311c-0.032,0.028 -0.074,0.03 -0.107,-0.004l-0.307 -0.307c-0.016,-0.015 -0.058,-0.022 -0.058,0l0 0c-0.015,0.016 -0.015,0.042 0,0.057z"/>
  </g>
 </g>
</svg>
