<?xml version="1.0" encoding="UTF-8"?><!DOCTYPE svg PUBLIC "-//W3C//DTD SVG 1.1//EN" "http://www.w3.org/Graphics/SVG/1.1/DTD/svg11.dtd"><!--Creator: CorelDRAW 2020 (64-Bit)--><svg xmlns="http://www.w3.org/2000/svg" width="49" height="49" shape-rendering="geometricPrecision" text-rendering="geometricPrecision" image-rendering="optimizeQuality" fill-rule="evenodd" clip-rule="evenodd" viewBox="0 0 3.993 3.993"><metadata/><rect fill="#E6E7E8" width="3.993" height="3.993" rx=".206" ry=".206"/><path fill="#D2D3D5" d="M1.554 2.784l1.203 1.199c.409-.002.623.002 1.032 0 .09.003.191-.082.195-.203l.008-1.463-.994-.983-1.444 1.45z"/><path fill="#008AAD" d="M1.047 2.114a.131.131 0 01.185 0l.41.411 1.196-1.196a.131.131 0 01.185.185l-1.29 1.29a.131.131 0 01-.185 0 .087.087 0 01-.017-.021L1.047 2.3a.132.132 0 010-.186z"/></svg>