<?xml version="1.0" encoding="UTF-8"?><!DOCTYPE svg PUBLIC "-//W3C//DTD SVG 1.1//EN" "http://www.w3.org/Graphics/SVG/1.1/DTD/svg11.dtd"><!--Creator: CorelDRAW 2020 (64-Bit)--><svg xmlns="http://www.w3.org/2000/svg" width="49" height="49" shape-rendering="geometricPrecision" text-rendering="geometricPrecision" image-rendering="optimizeQuality" fill-rule="evenodd" clip-rule="evenodd" viewBox="0 0 6.717 6.717"><metadata/><rect fill="#008AAD" width="6.717" height="6.717" rx=".347" ry=".347"/><path fill="#006C87" d="M2.615 4.684L4.638 6.7c.689-.002 1.048.004 1.737.001.15.006.321-.137.327-.341l.015-2.463-1.672-1.652-2.43 2.439z"/><path fill="#FEFEFE" d="M1.761 3.557a.22.22 0 01.312 0l.69.69 2.011-2.011a.22.22 0 01.312.312l-2.17 2.17a.22.22 0 01-.312 0 .234.234 0 01-.029-.035l-.814-.814a.22.22 0 010-.312z"/></svg>