<svg xmlns="http://www.w3.org/2000/svg" id="visual-inspection" width="18.456" height="16.822" viewBox="0 0 18.456 16.822">
  <g id="Group_6020" data-name="Group 6020" transform="translate(0.75 0.75)">
    <path id="Path_12672" data-name="Path 12672" d="M-11105.266,18608.484h-5.185v4.883" transform="translate(11110.45 -18608.484)" fill="none" stroke="#fff" stroke-linecap="round" stroke-linejoin="round" stroke-width="1.5"/>
    <path id="Path_12673" data-name="Path 12673" d="M5.185,0H0V4.883" transform="translate(16.956 15.322) rotate(180)" fill="none" stroke="#fff" stroke-linecap="round" stroke-linejoin="round" stroke-width="1.5"/>
    <path id="Path_12674" data-name="Path 12674" d="M0,0H5.185V4.883" transform="translate(5.185 15.322) rotate(180)" fill="none" stroke="#fff" stroke-linecap="round" stroke-linejoin="round" stroke-width="1.5"/>
    <path id="Path_12675" data-name="Path 12675" d="M-11110.45,18608.484h5.186v4.883" transform="translate(11122.221 -18608.484)" fill="none" stroke="#fff" stroke-linecap="round" stroke-linejoin="round" stroke-width="1.5"/>
    <g id="Icon_feather-eye" data-name="Icon feather-eye" transform="translate(2.591 3.227)">
      <path id="Path_12670" data-name="Path 12670" d="M1.042,8.417s2.125-4.25,5.844-4.25,5.844,4.25,5.844,4.25-2.125,4.25-5.844,4.25-5.844-4.25-5.844-4.25Z" transform="translate(-1.042 -4.167)" fill="none" stroke="#fff" stroke-linecap="round" stroke-linejoin="round" stroke-width="1.5"/>
      <path id="Path_12671" data-name="Path 12671" d="M12.985,11.18a1.8,1.8,0,1,1-1.8-1.8,1.8,1.8,0,0,1,1.8,1.8Z" transform="translate(-5.336 -6.93)" fill="none" stroke="#fff" stroke-linecap="round" stroke-linejoin="round" stroke-width="1.5"/>
    </g>
  </g>
</svg>
