<svg xmlns="http://www.w3.org/2000/svg" id="product-rbc" width="140" height="140" shape-rendering="geometricPrecision" text-rendering="geometricPrecision" image-rendering="optimizeQuality" fill-rule="evenodd" clip-rule="evenodd" viewBox="0 0 53.43 53.422"><rect fill="#E6E7E8" width="53.401" height="53.401" rx="2.759" ry="2.759"/><circle fill="#E6E7E8" cx="27.031" cy="26.362" r="21.284"/><path fill="#D2D3D5" d="M53.401 33.983L34.553 14.652 19.256 35.906l8.229 8.1v3.619l6.484 5.665 15.677.111c2.289.192 4.029-.962 3.755-3.107V33.983z"/><path fill="#FEFEFE" stroke="#FEFEFE" stroke-width=".254" stroke-miterlimit="2.613" d="M18.522 5.072h16.493c1.16 0 2.11.949 2.11 2.109v23.777c0 1.16-.95 2.109-2.11 2.109l-5.366.001-.018 2.889-2.12.004-.01 1.792-1.435-.002.015-1.787-2.011.004-.03-2.901h-3.256v1.24l-1.786-.022.021-1.218h-.497a2.115 2.115 0 01-2.11-2.109V7.181c0-1.16.949-2.109 2.11-2.109zm6.487 1.004h3.794c.881 0 1.602.721 1.602 1.603v.852c0 .881-.721 1.603-1.602 1.603h-3.794a1.609 1.609 0 01-1.603-1.603v-.852c0-.882.722-1.603 1.603-1.603z"/><path fill="#D64939" d="M36.557 18.116v12.487c0 1.159-1.154 2.13-2.313 2.13l-5.184.001-.015 2.759-1.894.001-.011 1.853-.616.001.008-1.837h-2.066l.01-2.901-4.169.014v1.29l-.903-.01.02-1.288-.902-.005c-1.16-.007-1.441-.534-1.441-1.694V18.095l19.476.021z"/><path fill="#FEFEFE" d="M26.496 38.553h.811v8.648h-.811z"/><rect fill="#E6E7E8" width="53.401" height="53.401" rx="2.759" ry="2.759"/><path fill="#D2D3D5" d="M53.401 21.458L36.694 5.907 18.928 34.441l8.422 9.565-.044 3.195 6.663 6.089 15.677.111c2.289.192 4.029-.962 3.755-3.107V21.458z"/><path fill="#FEFEFE" stroke="#FEFEFE" stroke-width=".254" stroke-miterlimit="2.613" d="M18.522 5.072h16.493c1.16 0 2.11.949 2.11 2.109v23.777c0 1.16-.95 2.109-2.11 2.109l-5.366.001-.018 2.889-2.12.004-.01 1.792-1.435-.002.015-1.787-2.011.004-.03-2.901h-3.256v1.24l-1.786-.022.021-1.218h-.497a2.115 2.115 0 01-2.11-2.109V7.181c0-1.16.949-2.109 2.11-2.109zm6.487 1.004h3.794c.881 0 1.602.721 1.602 1.603v.852c0 .881-.721 1.603-1.602 1.603h-3.794a1.609 1.609 0 01-1.603-1.603v-.852c0-.882.722-1.603 1.603-1.603z"/><path fill="#D64939" d="M36.589 12.162l-.032 18.441c-.002 1.159-1.154 2.13-2.313 2.13l-5.184.001-.015 2.759-1.894.001-.011 1.853-.616.001.008-1.837h-2.066l.01-2.901-4.169.014v1.29l-.903-.01.02-1.288-.902-.005c-1.159-.007-1.443-.534-1.441-1.694l.033-18.776 19.475.021z"/><path fill="#FEFEFE" d="M26.496 38.553h.811v8.648h-.811z"/><rect fill="#FEFEFE" x="19.485" y="17.176" width="14.918" height="11.546" rx="1.732" ry="1.732"/><path fill="#373435" fill-rule="nonzero" d="M33.022 21.131h-.708l-.281-.739H30.73l-.27.739h-.696l1.262-3.248h.695l1.301 3.248zm-1.202-1.288l-.452-1.203-.438 1.203h.89z"/><path fill="none" stroke="#96989A" stroke-width=".509" stroke-miterlimit="2.613" d="M21.227 21.146l6.411.061m-6.33 1.428l5.226.03"/><path fill="none" stroke="#96989A" stroke-width=".763" stroke-miterlimit="2.613" d="M21.267 25.39l2.978-.001m3.828.016l-2.765-.001"/><path fill="none" stroke="#96989A" stroke-width=".509" stroke-miterlimit="2.613" d="M21.248 19.562l5.226.031"/><path fill="#96989A" fill-rule="nonzero" d="M21.883 27.386h-.135l-.054-.141h-.249l-.051.141h-.133l.241-.621h.133l.248.621zm-.229-.246l-.087-.23-.084.23h.171zm.296.246v-.621h.264c.066 0 .114.006.145.017.03.011.054.031.072.059a.18.18 0 01.027.098.17.17 0 01-.041.116.197.197 0 01-.122.057.276.276 0 01.066.052.641.641 0 01.071.101l.076.121h-.15l-.089-.136a1.029 1.029 0 00-.067-.091.093.093 0 00-.037-.025.205.205 0 00-.064-.007h-.025v.259h-.126zm.126-.358h.092a.48.48 0 00.113-.008.067.067 0 00.035-.026.077.077 0 00.013-.047.074.074 0 00-.017-.05.08.08 0 00-.047-.025 1.327 1.327 0 00-.092-.002h-.097v.158zm.897.129l.121.037a.282.282 0 01-.093.153.263.263 0 01-.165.049.268.268 0 01-.203-.084.326.326 0 01-.08-.231.34.34 0 01.08-.241.276.276 0 01.211-.086c.076 0 .137.023.185.067a.249.249 0 01.063.115l-.124.029a.128.128 0 00-.046-.076.132.132 0 00-.084-.027.139.139 0 00-.112.049c-.029.033-.044.086-.044.16 0 .079.015.135.043.168.028.033.065.05.11.05a.127.127 0 00.086-.032.19.19 0 00.052-.1zm.214.063v-.118h.234v.118h-.234zm.277-.141c0-.063.01-.116.029-.159a.273.273 0 01.058-.085.224.224 0 01.08-.056.325.325 0 01.133-.025.29.29 0 01.22.085.327.327 0 01.083.237.329.329 0 01-.082.236.29.29 0 01-.219.085.29.29 0 01-.22-.085.319.319 0 01-.082-.233zm.129-.004c0 .071.017.124.049.16a.162.162 0 00.124.055c.05 0 .091-.018.123-.055.032-.035.048-.089.048-.162 0-.071-.015-.124-.047-.159a.157.157 0 00-.124-.052.156.156 0 00-.125.053c-.032.035-.048.089-.048.16zm.98.311h-.119v-.23a.343.343 0 00-.008-.093.062.062 0 00-.025-.034.076.076 0 00-.041-.011.097.097 0 00-.056.016.088.088 0 00-.034.045.343.343 0 00-.01.103v.204h-.118v-.45h.11v.066a.182.182 0 01.149-.075c.026 0 .05.004.072.014a.12.12 0 01.05.036.127.127 0 01.023.05.385.385 0 01.007.08v.279zm.38-.142l.119.02a.207.207 0 01-.072.099.215.215 0 01-.124.034c-.078 0-.136-.026-.173-.077a.254.254 0 01-.045-.155c0-.074.02-.133.059-.175a.19.19 0 01.147-.063c.067 0 .12.022.158.066.039.044.057.112.056.203h-.298a.121.121 0 00.029.082c.018.02.041.03.068.03a.072.072 0 00.047-.015.097.097 0 00.029-.049zm.007-.121a.117.117 0 00-.027-.079.08.08 0 00-.062-.026.083.083 0 00-.064.028.107.107 0 00-.024.077h.177zm.424.062l.122-.012c.007.04.022.07.044.09a.138.138 0 00.091.028c.04 0 .07-.008.091-.025a.077.077 0 00.03-.06.057.057 0 00-.013-.038.095.095 0 00-.044-.026 1.722 1.722 0 00-.1-.027.346.346 0 01-.141-.062.162.162 0 01-.03-.214.161.161 0 01.077-.063.299.299 0 01.122-.022c.077 0 .136.017.175.052.039.034.06.08.062.138l-.126.004a.108.108 0 00-.034-.069c-.018-.014-.044-.021-.079-.021a.143.143 0 00-.085.023.044.044 0 00-.019.038c0 .015.006.028.018.038a.346.346 0 00.115.042.605.605 0 01.135.044.175.175 0 01.093.162.18.18 0 01-.03.1.172.172 0 01-.083.069.357.357 0 01-.136.023.269.269 0 01-.18-.054.235.235 0 01-.075-.158zm.582-.03c0-.039.01-.078.029-.114a.2.2 0 01.083-.085.238.238 0 01.119-.029c.068 0 .124.022.168.066a.23.23 0 01.065.168.231.231 0 01-.066.169.222.222 0 01-.166.067.26.26 0 01-.118-.028.198.198 0 01-.085-.082.28.28 0 01-.029-.132zm.122.007c0 .045.011.079.032.102a.1.1 0 00.078.036.1.1 0 00.078-.036c.021-.023.031-.058.031-.103 0-.044-.01-.078-.031-.102a.102.102 0 00-.078-.035.102.102 0 00-.078.035.151.151 0 00-.032.103zm.435.224v-.621h.119v.621h-.119zm.538 0v-.067a.18.18 0 01-.149.078.168.168 0 01-.081-.02.115.115 0 01-.053-.056.264.264 0 01-.016-.1v-.285h.119v.207c0 .064.002.102.007.117a.063.063 0 00.024.034.074.074 0 00.044.012.1.1 0 00.055-.017.086.086 0 00.033-.041.502.502 0 00.008-.122v-.19h.119v.45h-.11zm.438-.45v.094h-.082v.183c0 .037.001.058.003.064a.025.025 0 00.01.015.034.034 0 00.02.006.172.172 0 00.048-.011l.01.092a.232.232 0 01-.094.018.132.132 0 01-.057-.011.076.076 0 01-.038-.028.108.108 0 01-.017-.046.672.672 0 01-.004-.085v-.197h-.054v-.094h.054v-.089l.119-.07v.159h.082zm.083-.061v-.11h.119v.11h-.119zm0 .511v-.45h.119v.45h-.119zm.213-.231c0-.039.01-.078.029-.114a.2.2 0 01.083-.085.238.238 0 01.119-.029c.068 0 .124.022.168.066a.23.23 0 01.065.168.231.231 0 01-.066.169.222.222 0 01-.166.067.26.26 0 01-.118-.028.198.198 0 01-.085-.082.28.28 0 01-.029-.132zm.122.007c0 .045.011.079.032.102a.1.1 0 00.078.036.1.1 0 00.078-.036c.021-.023.031-.058.031-.103 0-.044-.01-.078-.031-.102a.102.102 0 00-.078-.035.102.102 0 00-.078.035.151.151 0 00-.032.103zm.844.224h-.118v-.23a.343.343 0 00-.008-.093.068.068 0 00-.025-.034.082.082 0 00-.042-.011.099.099 0 00-.056.016.094.094 0 00-.034.045.393.393 0 00-.009.103v.204h-.119v-.45h.11v.066c.04-.05.09-.075.149-.075.027 0 .051.004.073.014a.116.116 0 01.049.036.145.145 0 01.024.05.399.399 0 01.006.08v.279zm.078-.127l.12-.018c.005.023.015.04.031.052a.103.103 0 00.065.018c.031 0 .053-.005.069-.017a.036.036 0 00.016-.031.032.032 0 00-.009-.023c-.006-.006-.019-.011-.039-.016a.617.617 0 01-.183-.058.115.115 0 01-.054-.101c0-.039.016-.072.047-.099.03-.026.078-.039.143-.039a.25.25 0 01.137.03c.03.02.05.05.062.089l-.112.021a.071.071 0 00-.028-.041.1.1 0 00-.057-.014.128.128 0 00-.068.014c-.009.006-.014.014-.014.024 0 .008.004.015.012.021a.467.467 0 00.112.034.327.327 0 01.133.053.11.11 0 01.037.088.137.137 0 01-.051.107.235.235 0 01-.153.044.25.25 0 01-.146-.037.17.17 0 01-.07-.101z"/><path fill="none" stroke="#96989A" stroke-width=".509" stroke-miterlimit="2.613" d="M29.853 22.578l2.753.03m-2.758 1.276l2.753.031"/><path fill="#A7C4D2" fill-opacity=".239" d="M34.487 5.67c1.518-.033 1.988.721 2.103 1.596.033.247.008.511.006.828l-.039 22.509a2.118 2.118 0 01-2.11 2.109l-5.387.002-.015 2.808-1.895.002-.01 1.823-.364-.001.295-25.285c.012-1.401-.02-1.393 1.732-1.38.881.007 2.007-.635 2.018-1.734l.019-1.798c.019-1.84 1.973-1.442 3.647-1.479z"/></svg>
