<svg xmlns="http://www.w3.org/2000/svg" xmlns:xlink="http://www.w3.org/1999/xlink" width="48" height="48" viewBox="0 0 48 48">
  <defs>
    <clipPath id="clip-path">
      <rect id="Rectangle_9152" data-name="Rectangle 9152" width="12.099" height="44.617" fill="none"/>
    </clipPath>
    <clipPath id="clip-path-2">
      <rect id="Rectangle_9151" data-name="Rectangle 9151" width="12.099" height="44.617" transform="translate(0 0)" fill="none"/>
    </clipPath>
    <clipPath id="clip-path-3">
      <rect id="Rectangle_9148" data-name="Rectangle 9148" width="7.752" height="39.774" transform="translate(2.174 2.975)" fill="none"/>
    </clipPath>
    <clipPath id="clip-path-4">
      <rect id="Rectangle_9150" data-name="Rectangle 9150" width="0.51" height="30.578" transform="translate(5.285 5.01)" fill="none"/>
    </clipPath>
  </defs>
  <g id="Images_Thermometer_Refrigerator" data-name="Images/Thermometer/Refrigerator" transform="translate(-199 -1727)">
    <rect id="Background" width="48" height="48" rx="5" transform="translate(199 1727)" fill="rgba(31,41,55,0.1)"/>
    <g id="Thermometer" transform="translate(216.95 1728.692)">
      <g id="Group_6790" data-name="Group 6790" clip-path="url(#clip-path)">
        <g id="Group_6789" data-name="Group 6789">
          <g id="Group_6788" data-name="Group 6788" clip-path="url(#clip-path-2)">
            <rect id="Rectangle_9147" data-name="Rectangle 9147" width="11.988" height="44.506" rx="3.33" transform="translate(0.056 0.056)" fill="#e6e6e6"/>
            <path id="Path_12824" data-name="Path 12824" d="M8.714,44.617H3.385A3.388,3.388,0,0,1,0,41.232V3.385A3.389,3.389,0,0,1,3.385,0H8.714A3.389,3.389,0,0,1,12.1,3.385V41.232a3.389,3.389,0,0,1-3.385,3.385M3.385.111A3.277,3.277,0,0,0,.111,3.385V41.232a3.277,3.277,0,0,0,3.274,3.274H8.714a3.278,3.278,0,0,0,3.274-3.274V3.385A3.278,3.278,0,0,0,8.714.111Z" fill="#cfcfcf"/>
            <path id="Path_12825" data-name="Path 12825" d="M11.348,40.823a3.125,3.125,0,0,1-2.98,3.251H3.6a3.125,3.125,0,0,1-2.98-3.251V3.877A3.124,3.124,0,0,1,3.6.626H8.368a3.124,3.124,0,0,1,2.98,3.251Z" fill="#fff"/>
            <g id="Group_6784" data-name="Group 6784" opacity="0.15">
              <g id="Group_6783" data-name="Group 6783">
                <g id="Group_6782" data-name="Group 6782" clip-path="url(#clip-path-3)">
                  <path id="Path_12826" data-name="Path 12826" d="M7.968,35.507V5.484c0-2.086-.707-2.508-1.918-2.508-1.06,0-1.918.5-1.918,2.387V35.507a3.876,3.876,0,1,0,3.836,0" fill="#1f2937"/>
                </g>
              </g>
            </g>
            <path id="Path_12827" data-name="Path 12827" d="M7.788,35.768V34.454H4.312v1.314a3.52,3.52,0,0,0-1.573,1.877c-.028.079-.053.158-.075.239a3.477,3.477,0,0,0-.127.935,3.513,3.513,0,1,0,6.9-.935c-.029-.1-.062-.207-.1-.307a3.527,3.527,0,0,0-1.548-1.809" fill="#6d28d9"/>
            <rect id="Rectangle_9149" data-name="Rectangle 9149" width="3.458" height="10.766" transform="translate(4.312 23.722)" fill="#6d28d9"/>
            <g id="Group_6787" data-name="Group 6787" opacity="0.7" style="mix-blend-mode: screen;isolation: isolate">
              <g id="Group_6786" data-name="Group 6786">
                <g id="Group_6785" data-name="Group 6785" clip-path="url(#clip-path-4)">
                  <path id="Path_12828" data-name="Path 12828" d="M5.8,35.109c0,.264-.114.479-.255.479s-.255-.215-.255-.479V5.488c0-.264.114-.478.255-.478s.255.214.255.478Z" fill="#fff"/>
                </g>
              </g>
            </g>
          </g>
        </g>
      </g>
    </g>
  </g>
</svg>