<svg xmlns="http://www.w3.org/2000/svg" xmlns:xlink="http://www.w3.org/1999/xlink" width="48" height="48" viewBox="0 0 48 48">
  <defs>
    <clipPath id="clip-path">
      <rect id="Rectangle_9140" data-name="Rectangle 9140" width="12.099" height="44.617" fill="none"/>
    </clipPath>
    <clipPath id="clip-path-2">
      <rect id="Rectangle_9139" data-name="Rectangle 9139" width="12.099" height="44.617" transform="translate(0 0)" fill="none"/>
    </clipPath>
    <clipPath id="clip-path-3">
      <rect id="Rectangle_9137" data-name="Rectangle 9137" width="7.752" height="39.774" transform="translate(2.174 2.975)" fill="none"/>
    </clipPath>
    <clipPath id="clip-path-4">
      <rect id="Rectangle_9138" data-name="Rectangle 9138" width="0.51" height="30.578" transform="translate(5.285 5.01)" fill="none"/>
    </clipPath>
  </defs>
  <g id="Images_Thermometer_Deep_Freeze" data-name="Images/Thermometer/Deep Freeze" transform="translate(-199 -1727)">
    <rect id="Background" width="48" height="48" rx="5" transform="translate(199 1727)" fill="rgba(31,41,55,0.1)"/>
    <g id="Thermometer" transform="translate(217 1729)">
      <g id="Group_6772" data-name="Group 6772" clip-path="url(#clip-path)">
        <g id="Group_6771" data-name="Group 6771">
          <g id="Group_6770" data-name="Group 6770" clip-path="url(#clip-path-2)">
            <rect id="Rectangle_9136" data-name="Rectangle 9136" width="11.988" height="44.506" rx="3.33" transform="translate(0.056 0.056)" fill="#e6e6e6"/>
            <path id="Path_12814" data-name="Path 12814" d="M8.714,44.617H3.385A3.388,3.388,0,0,1,0,41.232V3.385A3.389,3.389,0,0,1,3.385,0H8.714A3.389,3.389,0,0,1,12.1,3.385V41.232a3.389,3.389,0,0,1-3.385,3.385M3.385.111A3.277,3.277,0,0,0,.111,3.385V41.232a3.277,3.277,0,0,0,3.274,3.274H8.714a3.278,3.278,0,0,0,3.274-3.274V3.385A3.278,3.278,0,0,0,8.714.111Z" fill="#cfcfcf"/>
            <path id="Path_12815" data-name="Path 12815" d="M11.348,40.823a3.125,3.125,0,0,1-2.98,3.251H3.6a3.125,3.125,0,0,1-2.98-3.251V3.877A3.124,3.124,0,0,1,3.6.626H8.368a3.124,3.124,0,0,1,2.98,3.251Z" fill="#fff"/>
            <g id="Group_6766" data-name="Group 6766" opacity="0.15">
              <g id="Group_6765" data-name="Group 6765">
                <g id="Group_6764" data-name="Group 6764" clip-path="url(#clip-path-3)">
                  <path id="Path_12816" data-name="Path 12816" d="M7.968,35.507V5.484c0-2.086-.707-2.508-1.918-2.508-1.06,0-1.918.5-1.918,2.387V35.507a3.876,3.876,0,1,0,3.836,0" fill="#1f2937"/>
                </g>
              </g>
            </g>
            <path id="Path_12817" data-name="Path 12817" d="M7.788,35.768V34.454H4.312v1.314a3.52,3.52,0,0,0-1.573,1.877c-.028.079-.053.158-.075.239a3.477,3.477,0,0,0-.127.935,3.513,3.513,0,1,0,6.9-.935c-.029-.1-.062-.207-.1-.307a3.527,3.527,0,0,0-1.548-1.809" fill="#67e8f9"/>
            <g id="Group_6769" data-name="Group 6769" opacity="0.7" style="mix-blend-mode: screen;isolation: isolate">
              <g id="Group_6768" data-name="Group 6768">
                <g id="Group_6767" data-name="Group 6767" clip-path="url(#clip-path-4)">
                  <path id="Path_12818" data-name="Path 12818" d="M5.8,35.109c0,.264-.114.479-.255.479s-.255-.215-.255-.479V5.488c0-.264.114-.478.255-.478s.255.214.255.478Z" fill="#fff"/>
                </g>
              </g>
            </g>
          </g>
        </g>
      </g>
    </g>
  </g>
</svg>